<?xml version="1.0" encoding="UTF-8" standalone="no"?>
<!-- Created with Inkscape (http://www.inkscape.org/) -->

<svg
   width="1264.6866mm"
   height="301.18799mm"
   viewBox="0 0 4481.1732 1067.2015"
   id="svg4272"
   version="1.1"
   inkscape:version="1.1 (c68e22c387, 2021-05-23)"
   sodipodi:docname="SCT Banner with slogan (no fonts needed).svg"
   xmlns:inkscape="http://www.inkscape.org/namespaces/inkscape"
   xmlns:sodipodi="http://sodipodi.sourceforge.net/DTD/sodipodi-0.dtd"
   xmlns:xlink="http://www.w3.org/1999/xlink"
   xmlns="http://www.w3.org/2000/svg"
   xmlns:svg="http://www.w3.org/2000/svg"
   xmlns:rdf="http://www.w3.org/1999/02/22-rdf-syntax-ns#"
   xmlns:cc="http://creativecommons.org/ns#"
   xmlns:dc="http://purl.org/dc/elements/1.1/">
  <defs
     id="defs4274">
    <linearGradient
       inkscape:collect="always"
       id="linearGradient4023">
      <stop
         style="stop-color:#00adef;stop-opacity:1;"
         offset="0"
         id="stop4019" />
      <stop
         style="stop-color:#1e67a3;stop-opacity:1"
         offset="1"
         id="stop4021" />
    </linearGradient>
    <linearGradient
       inkscape:collect="always"
       xlink:href="#linearGradient4023"
       id="linearGradient4027"
       gradientUnits="userSpaceOnUse"
       x1="439.05844"
       y1="-198.65414"
       x2="1002.3312"
       y2="451.8009" />
    <linearGradient
       inkscape:collect="always"
       xlink:href="#linearGradient4023"
       id="linearGradient6433"
       gradientUnits="userSpaceOnUse"
       x1="439.05844"
       y1="-198.65414"
       x2="1002.3312"
       y2="451.8009" />
    <linearGradient
       inkscape:collect="always"
       xlink:href="#linearGradient4023"
       id="linearGradient6435"
       gradientUnits="userSpaceOnUse"
       x1="439.05844"
       y1="-198.65414"
       x2="1002.3312"
       y2="451.8009" />
    <linearGradient
       inkscape:collect="always"
       xlink:href="#linearGradient4023"
       id="linearGradient6437"
       gradientUnits="userSpaceOnUse"
       x1="439.05844"
       y1="-198.65414"
       x2="1002.3312"
       y2="451.8009" />
    <linearGradient
       inkscape:collect="always"
       xlink:href="#linearGradient4023"
       id="linearGradient6439"
       gradientUnits="userSpaceOnUse"
       x1="439.05844"
       y1="-198.65414"
       x2="1002.3312"
       y2="451.8009" />
    <linearGradient
       inkscape:collect="always"
       xlink:href="#linearGradient4023"
       id="linearGradient6441"
       gradientUnits="userSpaceOnUse"
       x1="439.05844"
       y1="-198.65414"
       x2="1002.3312"
       y2="451.8009" />
    <linearGradient
       inkscape:collect="always"
       xlink:href="#linearGradient4023"
       id="linearGradient6443"
       gradientUnits="userSpaceOnUse"
       x1="439.05844"
       y1="-198.65414"
       x2="1002.3312"
       y2="451.8009" />
    <linearGradient
       inkscape:collect="always"
       xlink:href="#linearGradient4023"
       id="linearGradient6445"
       gradientUnits="userSpaceOnUse"
       x1="439.05844"
       y1="-198.65414"
       x2="1002.3312"
       y2="451.8009" />
    <linearGradient
       inkscape:collect="always"
       xlink:href="#linearGradient4023"
       id="linearGradient6447"
       gradientUnits="userSpaceOnUse"
       x1="439.05844"
       y1="-198.65414"
       x2="1002.3312"
       y2="451.8009" />
    <linearGradient
       inkscape:collect="always"
       xlink:href="#linearGradient4023"
       id="linearGradient6449"
       gradientUnits="userSpaceOnUse"
       x1="439.05844"
       y1="-198.65414"
       x2="1002.3312"
       y2="451.8009" />
    <linearGradient
       inkscape:collect="always"
       xlink:href="#linearGradient4023"
       id="linearGradient6451"
       gradientUnits="userSpaceOnUse"
       x1="439.05844"
       y1="-198.65414"
       x2="1002.3312"
       y2="451.8009" />
    <linearGradient
       inkscape:collect="always"
       xlink:href="#linearGradient4023"
       id="linearGradient6453"
       gradientUnits="userSpaceOnUse"
       x1="439.05844"
       y1="-198.65414"
       x2="1002.3312"
       y2="451.8009" />
    <linearGradient
       inkscape:collect="always"
       xlink:href="#linearGradient4023"
       id="linearGradient6455"
       gradientUnits="userSpaceOnUse"
       x1="439.05844"
       y1="-198.65414"
       x2="1002.3312"
       y2="451.8009" />
    <linearGradient
       inkscape:collect="always"
       xlink:href="#linearGradient4023"
       id="linearGradient6457"
       gradientUnits="userSpaceOnUse"
       x1="439.05844"
       y1="-198.65414"
       x2="1002.3312"
       y2="451.8009" />
    <linearGradient
       inkscape:collect="always"
       xlink:href="#linearGradient4023"
       id="linearGradient6459"
       gradientUnits="userSpaceOnUse"
       x1="439.05844"
       y1="-198.65414"
       x2="1002.3312"
       y2="451.8009" />
    <linearGradient
       inkscape:collect="always"
       xlink:href="#linearGradient4023"
       id="linearGradient6461"
       gradientUnits="userSpaceOnUse"
       x1="439.05844"
       y1="-198.65414"
       x2="1002.3312"
       y2="451.8009" />
    <linearGradient
       inkscape:collect="always"
       xlink:href="#linearGradient4023"
       id="linearGradient6463"
       gradientUnits="userSpaceOnUse"
       x1="439.05844"
       y1="-198.65414"
       x2="1002.3312"
       y2="451.8009" />
    <linearGradient
       inkscape:collect="always"
       xlink:href="#linearGradient4023"
       id="linearGradient6465"
       gradientUnits="userSpaceOnUse"
       x1="439.05844"
       y1="-198.65414"
       x2="1002.3312"
       y2="451.8009" />
    <linearGradient
       inkscape:collect="always"
       xlink:href="#linearGradient4023"
       id="linearGradient6467"
       gradientUnits="userSpaceOnUse"
       x1="439.05844"
       y1="-198.65414"
       x2="1002.3312"
       y2="451.8009" />
    <linearGradient
       inkscape:collect="always"
       xlink:href="#linearGradient4023"
       id="linearGradient6469"
       gradientUnits="userSpaceOnUse"
       x1="439.05844"
       y1="-198.65414"
       x2="1002.3312"
       y2="451.8009" />
    <linearGradient
       inkscape:collect="always"
       xlink:href="#linearGradient4023"
       id="linearGradient6471"
       gradientUnits="userSpaceOnUse"
       x1="439.05844"
       y1="-198.65414"
       x2="1002.3312"
       y2="451.8009" />
    <linearGradient
       inkscape:collect="always"
       xlink:href="#linearGradient4023"
       id="linearGradient6473"
       gradientUnits="userSpaceOnUse"
       x1="439.05844"
       y1="-198.65414"
       x2="1002.3312"
       y2="451.8009" />
    <linearGradient
       inkscape:collect="always"
       xlink:href="#linearGradient4023"
       id="linearGradient6475"
       gradientUnits="userSpaceOnUse"
       x1="439.05844"
       y1="-198.65414"
       x2="1002.3312"
       y2="451.8009" />
    <linearGradient
       inkscape:collect="always"
       xlink:href="#linearGradient4023"
       id="linearGradient6477"
       gradientUnits="userSpaceOnUse"
       x1="439.05844"
       y1="-198.65414"
       x2="1002.3312"
       y2="451.8009" />
    <linearGradient
       inkscape:collect="always"
       xlink:href="#linearGradient4023"
       id="linearGradient6479"
       gradientUnits="userSpaceOnUse"
       x1="439.05844"
       y1="-198.65414"
       x2="1002.3312"
       y2="451.8009" />
    <filter
       style="color-interpolation-filters:sRGB"
       inkscape:label="Drop Shadow"
       id="filter969"
       x="-0.0336"
       y="-0.038753609"
       width="1.0672"
       height="1.0982267">
      <feFlood
         flood-opacity="0.498039"
         flood-color="rgb(0,0,0)"
         result="flood"
         id="feFlood959" />
      <feComposite
         in="flood"
         in2="SourceGraphic"
         operator="in"
         result="composite1"
         id="feComposite961" />
      <feGaussianBlur
         in="composite1"
         stdDeviation="14"
         result="blur"
         id="feGaussianBlur963" />
      <feOffset
         dx="0"
         dy="17.9641"
         result="offset"
         id="feOffset965" />
      <feComposite
         in="SourceGraphic"
         in2="offset"
         operator="over"
         result="composite2"
         id="feComposite967" />
    </filter>
    <filter
       style="color-interpolation-filters:sRGB;"
       inkscape:label="Drop Shadow"
       id="filter19740"
       x="-0.010104076"
       y="-0.045992776"
       width="1.0202082"
       height="1.1165754">
      <feFlood
         flood-opacity="0.498039"
         flood-color="rgb(0,0,0)"
         result="flood"
         id="feFlood19730" />
      <feComposite
         in="SourceGraphic"
         in2="flood"
         operator="in"
         result="composite1"
         id="feComposite19732" />
      <feGaussianBlur
         in="composite1"
         stdDeviation="14"
         result="blur"
         id="feGaussianBlur19734" />
      <feOffset
         dx="0"
         dy="17.9641"
         result="offset"
         id="feOffset19736" />
      <feComposite
         in="SourceGraphic"
         in2="offset"
         operator="over"
         result="composite2"
         id="feComposite19738" />
    </filter>
  </defs>
  <sodipodi:namedview
     id="base"
     pagecolor="#ffffff"
     bordercolor="#666666"
     borderopacity="1.0"
     inkscape:pageopacity="0.0"
     inkscape:pageshadow="2"
     inkscape:zoom="0.1767767"
     inkscape:cx="2291.026"
     inkscape:cy="-14.142136"
     inkscape:document-units="px"
     inkscape:current-layer="layer1"
     showgrid="false"
     fit-margin-top="0"
     fit-margin-left="0"
     fit-margin-right="25"
     fit-margin-bottom="0"
     inkscape:window-width="1920"
     inkscape:window-height="1013"
     inkscape:window-x="1916"
     inkscape:window-y="-4"
     inkscape:window-maximized="1"
     inkscape:pagecheckerboard="0"
     width="1750mm" />
  <metadata
     id="metadata4277">
    <rdf:RDF>
      <cc:Work
         rdf:about="">
        <dc:format>image/svg+xml</dc:format>
        <dc:type
           rdf:resource="http://purl.org/dc/dcmitype/StillImage" />
      </cc:Work>
    </rdf:RDF>
  </metadata>
  <g
     inkscape:label="Layer 1"
     inkscape:groupmode="layer"
     id="layer1"
     transform="translate(-231.73769,139.42516)">
    <g
       id="g6431"
       transform="translate(0,233.27254)"
       style="filter:url(#filter969)">
      <path
         style="stroke-width:42.9258"
         d="M 1037.3586,585.42904 1265.3377,36.536417 C 1165.3205,-74.255134 1040.9215,-128.55628 891.53962,-125.72315 L 662.10105,428.23467 c 140.06703,-18.58695 264.38021,34.21188 375.25755,157.19437 z"
         id="path4518-2"
         inkscape:connector-curvature="0" />
      <path
         style="stroke-width:42.9258"
         d="m 878.61892,-125.72315 -84.34925,4.97939 -28.58854,70.054963 84.34916,-7.898406 z"
         id="path4520-4"
         inkscape:connector-curvature="0" />
      <path
         style="stroke-width:42.9258"
         d="m 845.0509,-46.353359 -83.6624,5.709151 -29.23249,70.054963 84.99312,-7.855415 z"
         id="path4522-2"
         inkscape:connector-curvature="0" />
      <path
         style="stroke-width:42.9258"
         d="m 812.16976,33.703385 -83.57653,4.936401 -29.36128,69.411104 85.03604,-6.4818 z"
         id="path4524-0"
         inkscape:connector-curvature="0" />
      <path
         style="stroke-width:42.9258"
         d="m 779.33149,113.71713 -84.39217,5.0223 -28.54564,69.3252 84.34928,-7.16865 z"
         id="path4526-9"
         inkscape:connector-curvature="0" />
      <path
         style="stroke-width:42.9258"
         d="m 746.45033,192.31427 -84.34928,5.02238 -28.63153,69.36811 85.03613,-7.16865 z"
         id="path4528-6"
         inkscape:connector-curvature="0" />
      <path
         style="stroke-width:42.9258"
         d="m 712.83941,273.78753 -84.39218,5.06519 -28.54564,70.05496 84.34919,-7.16856 z"
         id="path4530-0"
         inkscape:connector-curvature="0" />
      <path
         style="stroke-width:42.9258"
         d="m 679.18559,353.88707 -83.61953,5.06529 -29.27539,69.96907 84.99305,-7.89831 z"
         id="path4532-1"
         inkscape:connector-curvature="0" />
      <path
         style="stroke-width:42.9258"
         d="m 705.67085,-129.32893 -26.48526,63.658965 77.91038,-6.438808 26.48525,-62.843407 z"
         id="path4534-2"
         inkscape:connector-curvature="0" />
      <path
         style="stroke-width:42.9258"
         d="m 606.98435,108.73774 -27.17211,63.61606 79.36989,-6.4389 25.71251,-63.61606 z"
         id="path4540-2"
         inkscape:connector-curvature="0" />
      <path
         style="stroke-width:42.9258"
         d="m 559.85177,403.85278 26.39937,-62.88631 -77.82449,5.66615 -26.48526,62.9293 z"
         id="path4546-0"
         inkscape:connector-curvature="0" />
      <path
         style="stroke-width:42.9258"
         d="m 702.10797,-164.31347 -65.76243,2.87603 -23.56624,56.4904 66.44919,-3.64877 z"
         id="path4548-1"
         inkscape:connector-curvature="0" />
      <path
         style="stroke-width:42.9258"
         d="m 603.46438,74.397068 -66.44919,2.103369 -22.87939,56.490403 66.53499,-3.51998 z"
         id="path4554-3"
         inkscape:connector-curvature="0" />
      <path
         style="stroke-width:42.9258"
         d="m 481.94139,367.49463 22.87949,-55.76065 -65.76243,2.83303 -23.56624,55.63195 z"
         id="path4560-8"
         inkscape:connector-curvature="0" />
      <path
         style="stroke-width:42.9258"
         d="m 570.58321,-185.08958 -16.39768,40.04982 52.84172,-2.18926 17.17034,-40.69368 z"
         id="path4562-4"
         inkscape:connector-curvature="0" />
      <path
         style="stroke-width:42.9258"
         d="m 525.554,49.414215 -53.65728,2.876023 -17.12735,40.04982 53.65728,-1.330716 z"
         id="path4568-2"
         inkscape:connector-curvature="0" />
      <path
         style="stroke-width:42.9258"
         d="m 372.65225,290.22811 -16.52647,40.77957 53.61438,-2.14636 17.17034,-41.42343 z"
         id="path4574-8"
         inkscape:connector-curvature="0" />
      <path
         style="stroke-width:42.9258"
         d="m 547.01697,-208.61292 14.29431,-34.34068 -40.73667,5.75205 -13.60746,33.56802 z"
         id="path4576-1"
         inkscape:connector-curvature="0" />
      <path
         style="stroke-width:42.9258"
         d="M 421.88811,0.77922722 407.59389,34.433047 447.60072,29.410755 462.62479,-5.659672 Z"
         id="path4582-2"
         inkscape:connector-curvature="0" />
      <path
         style="stroke-width:42.9258"
         d="m 322.55776,238.80299 -12.87771,32.92407 40.04982,-4.37843 14.29432,-34.98454 z"
         id="path4588-2"
         inkscape:connector-curvature="0" />
      <path
         style="stroke-width:42.9258"
         d="m 471.89672,-278.71079 -9.95879,22.87948 30.6491,-0.72993 10.77434,-25.02575 z"
         id="path4590-5"
         inkscape:connector-curvature="0" />
      <path
         style="stroke-width:42.9258"
         d="m 373.98297,-42.060724 -9.95878,23.523345 h 30.00514 l 10.68854,-25.025752 z"
         id="path4596-1"
         inkscape:connector-curvature="0" />
      <path
         style="stroke-width:42.9258"
         d="m 274.65262,196.6498 -9.31493,23.65214 30.04805,-0.81592 10.00168,-25.02575 z"
         id="path4602-1"
         inkscape:connector-curvature="0" />
      <g
         id="g3987"
         style="fill:url(#linearGradient4027);fill-opacity:1">
        <path
           d="m 724.2577,8.6346422 25.7555,-62.8863162 -77.91037,5.666246 -26.48526,63.61607 z"
           id="path4536-6"
           inkscape:connector-curvature="0"
           style="fill:url(#linearGradient6433);fill-opacity:1;stroke-width:42.9258" />
        <path
           d="m 692.02039,85.815359 26.48526,-63.616156 -78.59723,6.395999 -25.7555,62.886312 z"
           id="path4538-8"
           inkscape:connector-curvature="0"
           style="fill:url(#linearGradient6435);fill-opacity:1;stroke-width:42.9258" />
        <path
           d="m 572.68658,189.43825 -25.71261,63.57316 78.59724,-6.26721 25.7984,-63.70186 z"
           id="path4542-0"
           inkscape:connector-curvature="0"
           style="fill:url(#linearGradient6437);fill-opacity:1;stroke-width:42.9258" />
        <path
           d="m 540.53517,266.70476 -25.71261,63.57317 78.68303,-6.4389 26.39937,-63.61606 z"
           id="path4544-0"
           inkscape:connector-curvature="0"
           style="fill:url(#linearGradient6439);fill-opacity:1;stroke-width:42.9258" />
        <path
           d="m 602.73462,-80.007179 -23.56624,55.760654 66.44919,-3.562876 22.96528,-55.073801 z"
           id="path4550-3"
           inkscape:connector-curvature="0"
           style="fill:url(#linearGradient6441);fill-opacity:1;stroke-width:42.9258" />
        <path
           d="M 570.58321,-3.4704115 547.70373,52.977 614.15292,49.414215 637.0324,-5.659672 Z"
           id="path4552-5"
           inkscape:connector-curvature="0"
           style="fill:url(#linearGradient6443);fill-opacity:1;stroke-width:42.9258" />
        <path
           d="m 503.40427,158.05949 -23.56625,56.44741 67.17895,-3.51989 22.83649,-55.71775 z"
           id="path4556-1"
           inkscape:connector-curvature="0"
           style="fill:url(#linearGradient6445);fill-opacity:1;stroke-width:42.9258" />
        <path
           d="m 471.89672,235.24011 -22.87948,55.0309 65.76242,-2.79013 23.56625,-55.76065 z"
           id="path4558-2"
           inkscape:connector-curvature="0"
           style="fill:url(#linearGradient6447);fill-opacity:1;stroke-width:42.9258" />
        <path
           d="m 537.01519,-104.30318 -16.44058,40.006831 52.88462,-2.060378 17.17034,-40.779573 z"
           id="path4564-1"
           inkscape:connector-curvature="0"
           style="fill:url(#linearGradient6449);fill-opacity:1;stroke-width:42.9258" />
        <path
           d="m 504.82088,-27.76641 -16.44059,40.049728 53.65728,-1.459415 17.08445,-42.153189 z"
           id="path4566-4"
           inkscape:connector-curvature="0"
           style="fill:url(#linearGradient6451);fill-opacity:1;stroke-width:42.9258" />
        <path
           d="m 438.37169,132.99084 -17.12744,40.77948 54.34414,-2.14627 16.44058,-41.50923 z"
           id="path4570-3"
           inkscape:connector-curvature="0"
           style="fill:url(#linearGradient6453);fill-opacity:1;stroke-width:42.9258" />
        <path
           d="m 406.22018,210.25726 -16.48348,40.73667 53.65728,-2.14636 16.39768,-41.46633 z"
           id="path4572-3"
           inkscape:connector-curvature="0"
           style="fill:url(#linearGradient6455);fill-opacity:1;stroke-width:42.9258" />
        <path
           d="m 486.92079,-156.45805 -14.29432,33.65382 40.69368,-5.02229 14.29432,-34.98454 z"
           id="path4578-4"
           inkscape:connector-curvature="0"
           style="fill:url(#linearGradient6457);fill-opacity:1;stroke-width:42.9258" />
        <path
           d="m 454.76937,-79.191535 -14.29431,33.56793 40.73658,-4.979393 15.02407,-34.984536 z"
           id="path4580-1"
           inkscape:connector-curvature="0"
           style="fill:url(#linearGradient6459);fill-opacity:1;stroke-width:42.9258" />
        <path
           d="m 388.32018,81.608529 -13.52166,33.525121 39.96393,-4.9364 14.33722,-34.297776 z"
           id="path4584-2"
           inkscape:connector-curvature="0"
           style="fill:url(#linearGradient6461);fill-opacity:1;stroke-width:42.9258" />
        <path
           d="m 356.12578,158.74634 -13.52166,33.56793 39.96402,-4.97939 14.29422,-35.02744 z"
           id="path4586-9"
           inkscape:connector-curvature="0"
           style="fill:url(#linearGradient6463);fill-opacity:1;stroke-width:42.9258" />
        <path
           d="m 439.05845,-198.65414 -10.00168,23.60924 30.04804,-0.72994 9.95878,-24.98285 z"
           id="path4592-2"
           inkscape:connector-curvature="0"
           style="fill:url(#linearGradient6465);fill-opacity:1;stroke-width:42.9258" />
        <path
           d="m 406.90704,-122.20327 -9.31492,23.609238 h 29.27539 l 10.00177,-25.025748 z"
           id="path4594-9"
           inkscape:connector-curvature="0"
           style="fill:url(#linearGradient6467);fill-opacity:1;stroke-width:42.9258" />
        <path
           d="m 340.41495,39.36954 -10.00178,22.879483 30.00524,-0.686946 9.95878,-23.566245 z"
           id="path4598-2"
           inkscape:connector-curvature="0"
           style="fill:url(#linearGradient6469);fill-opacity:1;stroke-width:42.9258" />
        <path
           d="m 308.26354,116.59316 -10.00178,23.56624 30.04814,-0.68695 10.64554,-24.38188 z"
           id="path4600-1"
           inkscape:connector-curvature="0"
           style="fill:url(#linearGradient6471);fill-opacity:1;stroke-width:42.9258" />
        <path
           d="M 927.25391,142.26277 1000.1419,-32.831693 C 964.42762,-45.022638 917.20923,-49.959135 858.65845,-48.585428 L 786.41426,125.86509 c 53.61435,-2.18917 100.83273,3.64876 140.83965,16.39768 z"
           id="path4604-0"
           inkscape:connector-curvature="0"
           style="fill:url(#linearGradient6473);fill-opacity:1;stroke-width:42.9258" />
        <path
           d="m 1168.1107,50.830731 c -32.8812,-33.61092 -71.5145,-57.1771653 -115.7709,-71.514379 l -74.34762,179.429988 50.00862,20.73312 c 19.2308,7.81252 41.4234,23.60924 67.136,47.90524 z"
           id="path4606-4"
           inkscape:connector-curvature="0"
           style="fill:url(#linearGradient6475);fill-opacity:1;stroke-width:42.9258" />
        <path
           d="m 1073.7597,277.4791 c -32.9241,-32.96696 -72.2012,-55.11669 -117.2304,-67.22184 L 885.05782,382.4757 c 41.42344,14.33722 80.09955,37.90346 117.27338,69.32521 z"
           id="path4608-8"
           inkscape:connector-curvature="0"
           style="fill:url(#linearGradient6477);fill-opacity:1;stroke-width:42.9258" />
        <path
           d="M 835.73607,363.88885 905.01829,196.6498 C 861.40569,182.35549 814.31603,176.64634 764.26453,180.20922 L 693.5228,349.68033 c 42.15319,-2.27506 89.32867,2.83313 142.21327,14.20852 z"
           id="path4610-7"
           inkscape:connector-curvature="0"
           style="fill:url(#linearGradient6479);fill-opacity:1;stroke-width:42.9258" />
      </g>
    </g>
    <g
       id="g19728"
       style="filter:url(#filter19740)">
      <g
         aria-label="Simple Classic Theme

"
         id="text2645"
         style="font-size:305px;line-height:1.25;font-family:FranklinGothic;-inkscape-font-specification:FranklinGothic;stroke-width:0.9375">
        <path
           d="m 1298.9376,450.61404 45.2149,-35.54687 q 10.8398,18.16406 25.4882,26.26953 14.7461,8.10547 36.9141,8.10547 18.8477,0 29.9805,-6.64063 11.2304,-6.73828 11.2304,-17.77343 0,-14.35547 -24.2187,-21.875 -24.2188,-7.61719 -50.3906,-14.94141 -26.0742,-7.42187 -44.7266,-24.80469 -18.6523,-17.48047 -18.6523,-52.83203 0,-24.70703 13.1836,-44.23828 13.1836,-19.62891 36.7187,-30.46875 23.6328,-10.83984 53.3203,-10.83984 60.8399,0 94.7266,41.60156 l -42.7735,34.76562 q -11.8164,-13.86718 -23.2421,-19.72656 -11.4258,-5.85937 -27.1485,-5.85937 -15.9179,0 -26.1719,6.34765 -10.2539,6.34766 -10.2539,16.01563 0,13.96484 23.7305,20.80078 23.7305,6.73828 50.9766,13.86719 27.3437,7.1289 46.289,24.90234 19.043,17.67578 19.043,54.10156 0,26.75782 -13.1836,46.97266 -13.0859,20.21484 -37.207,31.25 -24.1211,10.9375 -55.6641,10.9375 -82.0312,0 -113.1836,-50.39063 z"
           style="font-size:400px;font-family:'Franklin Gothic';-inkscape-font-specification:'Franklin Gothic';letter-spacing:-28.125px"
           id="path920" />
        <path
           d="M 1524.4259,496.21951 V 307.05936 h 62.0117 v 189.16015 z m 0,-212.01172 v -55.95703 h 62.0117 v 55.95703 z"
           style="font-size:400px;font-family:'Franklin Gothic';-inkscape-font-specification:'Franklin Gothic';letter-spacing:-28.125px"
           id="path922" />
        <path
           d="M 1601.4767,496.21951 V 307.05936 h 62.0117 v 31.54297 q 15.918,-18.84766 30.1758,-27.14844 14.3555,-8.39844 30.664,-8.39844 16.9922,0 28.0274,8.30078 11.1328,8.30078 19.1406,26.85547 29.3945,-35.15625 63.5742,-35.15625 23.7305,0 37.0118,14.74609 13.3789,14.7461 13.3789,40.82032 v 137.59765 h -62.0118 V 381.37576 q 0,-33.20312 -19.9218,-33.20312 -16.4063,0 -29.1993,17.67578 v 130.37109 h -62.0117 V 384.20779 q 0,-35.15625 -18.8476,-35.15625 -15.2344,0 -29.9805,16.79688 v 130.37109 z"
           style="font-size:400px;font-family:'Franklin Gothic';-inkscape-font-specification:'Franklin Gothic';letter-spacing:-28.125px"
           id="path924" />
        <path
           d="M 1899.7189,552.17654 V 307.05936 h 62.0117 v 23.53515 q 27.3437,-27.92968 53.6133,-27.92968 20.8984,0 35.9375,11.71875 15.039,11.62109 22.9492,33.6914 7.9101,22.07031 7.9101,52.14844 0,48.4375 -16.7968,72.36328 -8.9844,13.18359 -22.7539,20.41016 -13.6719,7.22656 -29.2969,7.22656 -29.0039,0 -51.5625,-25.97656 v 77.92968 z m 62.0117,-106.34765 q 13.2812,15.625 28.0273,15.625 14.4532,0 20.8008,-15.625 6.3477,-15.625 6.3477,-51.5625 0,-25.48828 -7.5196,-38.96485 -7.4218,-13.47656 -21.289,-13.47656 -12.5,0 -26.3672,16.79688 z"
           style="font-size:400px;font-family:'Franklin Gothic';-inkscape-font-specification:'Franklin Gothic';letter-spacing:-28.125px"
           id="path926" />
        <path
           d="M 2085.9493,496.21951 V 228.25076 h 62.0118 v 267.96875 z"
           style="font-size:400px;font-family:'Franklin Gothic';-inkscape-font-specification:'Franklin Gothic';letter-spacing:-28.125px"
           id="path928" />
        <path
           d="m 2292.9806,432.64529 40.0391,19.14063 q -27.1485,48.4375 -83.5938,48.4375 -28.2227,0 -50.4883,-12.01172 -22.2656,-12.10937 -34.7656,-33.88672 -12.4023,-21.875 -12.4023,-49.3164 0,-27.63672 12.5976,-51.17188 12.6953,-23.63281 34.4727,-37.20703 21.7773,-13.57422 47.3632,-13.57422 25.6836,0 46.1915,13.08594 20.6054,13.08594 32.2265,36.32812 11.6211,23.14453 11.6211,51.75782 v 9.17968 h -118.8476 q 1.9531,44.4336 38.8671,44.4336 24.4141,0 36.7188,-25.19532 z m -75.1953,-52.05078 h 56.8359 q -1.1719,-39.16015 -27.2461,-39.16015 -12.8906,0 -21.0937,10.9375 -8.2032,10.83984 -8.4961,28.22265 z"
           style="font-size:400px;font-family:'Franklin Gothic';-inkscape-font-specification:'Franklin Gothic';letter-spacing:-28.125px"
           id="path930" />
        <path
           d="m 2595.6173,401.00467 54.0039,12.40234 q -5.5664,20.80078 -15.7226,37.01172 -10.0586,16.11328 -24.2188,27.44141 -14.1601,11.32812 -31.9336,17.28515 -17.7734,5.85938 -38.1836,5.85938 -24.8047,0 -51.9531,-12.01172 -27.1484,-12.01172 -46.582,-41.89453 -19.4336,-29.98047 -19.4336,-79.29688 0,-28.80859 7.5195,-54.58984 7.5195,-25.87891 22.6563,-45.80078 15.2343,-19.92188 38.0859,-31.15234 22.9492,-11.23047 52.9297,-11.23047 30.7617,0 55.1758,13.47656 24.5117,13.47656 38.0859,35.15625 13.5742,21.58203 13.5742,44.53125 l -68.457,3.61328 q -5.1758,-43.55469 -37.9883,-43.55469 -23.0469,0 -33.9844,21.67969 -10.8398,21.58203 -10.8398,67.48047 0,27.34375 4.9805,44.62891 4.9804,17.1875 15.4296,25.48828 10.4493,8.30078 26.8555,8.30078 16.6016,0 26.9531,-7.91016 10.4493,-7.91015 14.6485,-16.40625 4.2968,-8.49609 8.3984,-20.50781 z"
           style="font-size:400px;font-family:'Franklin Gothic';-inkscape-font-specification:'Franklin Gothic';letter-spacing:-28.125px"
           id="path932" />
        <path
           d="M 2652.6486,496.21951 V 228.25076 h 62.0117 v 267.96875 z"
           style="font-size:400px;font-family:'Franklin Gothic';-inkscape-font-specification:'Franklin Gothic';letter-spacing:-28.125px"
           id="path934" />
        <path
           d="m 2895.3243,364.18826 v 94.04297 q 0,12.79297 0.6836,19.53125 0.6836,6.64063 4.1016,18.45703 h -62.0117 q -1.6602,-9.08203 -2.3438,-20.01953 -29.8828,24.02344 -60.0586,24.02344 -24.5117,0 -40.039,-14.45313 -15.5274,-14.45312 -15.5274,-37.10937 0,-34.17969 29.4922,-52.05078 29.5899,-17.96875 86.1328,-17.96875 v -14.45313 q 0,-11.13281 -6.8359,-17.28515 -6.8359,-6.25 -19.2383,-6.25 -12.3047,0 -18.9453,5.66406 -6.6406,5.66406 -8.9844,17.87109 l -52.832,-12.79297 q 4.4922,-15.23437 15.918,-26.17187 11.5234,-10.9375 29.1015,-16.50391 17.5781,-5.66406 40.1367,-5.66406 41.6016,0 61.4258,14.35547 19.8242,14.35547 19.8242,46.77734 z m -59.5703,44.04297 h -4.8828 q -20.8008,0 -34.5703,9.27735 -13.7695,9.17968 -13.7695,23.14453 0,9.86328 6.3476,16.69922 6.3477,6.83593 15.625,6.83593 13.4766,0 31.25,-12.40234 z"
           style="font-size:400px;font-family:'Franklin Gothic';-inkscape-font-specification:'Franklin Gothic';letter-spacing:-28.125px"
           id="path936" />
        <path
           d="m 2897.5704,457.05936 37.9883,-20.41016 q 15.1367,26.75781 49.6094,26.75781 14.1601,0 22.0703,-4.58984 7.9102,-4.58984 7.9102,-12.59766 0,-10.05859 -8.1055,-12.79297 -8.1055,-2.73437 -33.8867,-7.61718 -25.7813,-4.88282 -39.1602,-12.40235 -27.6367,-15.52734 -27.6367,-45.21484 0,-18.65234 10.2539,-33.49609 10.2539,-14.94141 28.5156,-23.24219 18.2617,-8.39844 40.8203,-8.39844 55.6641,0 78.0274,41.60156 l -36.8164,19.53125 q -12.3047,-23.92578 -40.8203,-23.92578 -11.6211,0 -18.8477,4.29688 -7.1289,4.29687 -7.1289,11.23047 0,7.71484 7.1289,11.03515 7.2266,3.32031 24.6094,6.15235 17.4805,2.73437 29.7851,6.05468 12.3047,3.22266 23.6329,11.23047 12.0117,8.30078 18.3593,20.11719 6.4453,11.81641 6.4453,26.26953 0,18.65234 -10.4492,33.20313 -10.4492,14.45312 -29.4922,22.46093 -19.0429,7.91016 -43.6523,7.91016 -67.9688,0 -89.1602,-43.16406 z"
           style="font-size:400px;font-family:'Franklin Gothic';-inkscape-font-specification:'Franklin Gothic';letter-spacing:-28.125px"
           id="path938" />
        <path
           d="m 3058.215,457.05936 37.9882,-20.41016 q 15.1368,26.75781 49.6094,26.75781 14.1602,0 22.0703,-4.58984 7.9102,-4.58984 7.9102,-12.59766 0,-10.05859 -8.1055,-12.79297 -8.1054,-2.73437 -33.8867,-7.61718 -25.7812,-4.88282 -39.1602,-12.40235 -27.6367,-15.52734 -27.6367,-45.21484 0,-18.65234 10.2539,-33.49609 10.2539,-14.94141 28.5157,-23.24219 18.2617,-8.39844 40.8203,-8.39844 55.664,0 78.0273,41.60156 l -36.8164,19.53125 q -12.3047,-23.92578 -40.8203,-23.92578 -11.6211,0 -18.8477,4.29688 -7.1289,4.29687 -7.1289,11.23047 0,7.71484 7.1289,11.03515 7.2266,3.32031 24.6094,6.15235 17.4805,2.73437 29.7852,6.05468 12.3047,3.22266 23.6328,11.23047 12.0117,8.30078 18.3594,20.11719 6.4453,11.81641 6.4453,26.26953 0,18.65234 -10.4492,33.20313 -10.4493,14.45312 -29.4922,22.46093 -19.043,7.91016 -43.6524,7.91016 -67.9687,0 -89.1601,-43.16406 z"
           style="font-size:400px;font-family:'Franklin Gothic';-inkscape-font-specification:'Franklin Gothic';letter-spacing:-28.125px"
           id="path940" />
        <path
           d="M 3232.0431,496.21951 V 307.05936 h 62.0117 v 189.16015 z m 0,-212.01172 v -55.95703 h 62.0117 v 55.95703 z"
           style="font-size:400px;font-family:'Franklin Gothic';-inkscape-font-specification:'Franklin Gothic';letter-spacing:-28.125px"
           id="path942" />
        <path
           d="m 3430.6759,429.03201 41.6016,8.00782 q -10.9375,32.32421 -30.9571,47.7539 -19.9218,15.42969 -50.5859,15.42969 -27.0508,0 -48.3398,-12.01172 -21.1915,-12.01172 -32.9102,-33.88672 -11.6211,-21.875 -11.6211,-49.70703 0,-29.10156 12.0117,-52.34375 12.1094,-23.24219 33.5938,-36.23047 21.4843,-12.98828 48.4375,-12.98828 21.1914,0 38.0859,7.91016 16.8945,7.91015 27.6367,22.94922 10.8399,14.9414 14.6485,35.54687 l -56.3477,2.34375 q -0.5859,-28.02734 -22.8516,-28.02734 -29.9804,0 -29.9804,58.39843 0,57.61719 34.375,57.61719 24.8047,0 33.2031,-30.76172 z"
           style="font-size:400px;font-family:'Franklin Gothic';-inkscape-font-specification:'Franklin Gothic';letter-spacing:-28.125px"
           id="path944" />
        <path
           d="M 3631.2618,496.21951 V 285.37967 h -72.3632 v -55.95703 h 217.9687 v 55.95703 h -72.3633 v 210.83984 z"
           style="font-size:400px;font-family:'Franklin Gothic';-inkscape-font-specification:'Franklin Gothic';letter-spacing:-28.125px"
           id="path946" />
        <path
           d="M 3786.34,496.21951 V 228.25076 h 62.0117 v 112.40235 q 28.6133,-37.59766 62.4023,-37.59766 12.1094,0 22.6563,5.27344 10.6445,5.27344 16.9922,14.64844 9.9609,14.64843 9.9609,39.25781 v 133.98437 h -62.0117 v -117.1875 q 0,-31.64062 -20.0195,-31.64062 -17.1875,0 -29.9805,20.41015 v 128.41797 z"
           style="font-size:400px;font-family:'Franklin Gothic';-inkscape-font-specification:'Franklin Gothic';letter-spacing:-28.125px"
           id="path948" />
        <path
           d="m 4104.9923,432.64529 40.0391,19.14063 q -27.1485,48.4375 -83.5938,48.4375 -28.2226,0 -50.4883,-12.01172 -22.2656,-12.10937 -34.7656,-33.88672 -12.4023,-21.875 -12.4023,-49.3164 0,-27.63672 12.5976,-51.17188 12.6953,-23.63281 34.4727,-37.20703 21.7773,-13.57422 47.3633,-13.57422 25.6836,0 46.1914,13.08594 20.6054,13.08594 32.2265,36.32812 11.6211,23.14453 11.6211,51.75782 v 9.17968 h -118.8476 q 1.9531,44.4336 38.8672,44.4336 24.414,0 36.7187,-25.19532 z m -75.1953,-52.05078 h 56.8359 q -1.1718,-39.16015 -27.2461,-39.16015 -12.8906,0 -21.0937,10.9375 -8.2031,10.83984 -8.4961,28.22265 z"
           style="font-size:400px;font-family:'Franklin Gothic';-inkscape-font-specification:'Franklin Gothic';letter-spacing:-28.125px"
           id="path950" />
        <path
           d="M 4152.4532,496.21951 V 307.05936 h 62.0118 v 31.54297 q 15.9179,-18.84766 30.1757,-27.14844 14.3555,-8.39844 30.6641,-8.39844 16.9922,0 28.0274,8.30078 11.1328,8.30078 19.1406,26.85547 29.3945,-35.15625 63.5742,-35.15625 23.7305,0 37.0117,14.74609 13.3789,14.7461 13.3789,40.82032 v 137.59765 h -62.0117 V 381.37576 q 0,-33.20312 -19.9219,-33.20312 -16.4062,0 -29.1992,17.67578 v 130.37109 h -62.0117 V 384.20779 q 0,-35.15625 -18.8477,-35.15625 -15.2343,0 -29.9804,16.79688 v 130.37109 z"
           style="font-size:400px;font-family:'Franklin Gothic';-inkscape-font-specification:'Franklin Gothic';letter-spacing:-28.125px"
           id="path952" />
        <path
           d="m 4581.0665,432.64529 40.0391,19.14063 q -27.1484,48.4375 -83.5938,48.4375 -28.2226,0 -50.4882,-12.01172 -22.2657,-12.10937 -34.7657,-33.88672 -12.4023,-21.875 -12.4023,-49.3164 0,-27.63672 12.5976,-51.17188 12.6954,-23.63281 34.4727,-37.20703 21.7773,-13.57422 47.3633,-13.57422 25.6836,0 46.1914,13.08594 20.6055,13.08594 32.2266,36.32812 11.621,23.14453 11.621,51.75782 v 9.17968 h -118.8476 q 1.9531,44.4336 38.8672,44.4336 24.414,0 36.7187,-25.19532 z m -75.1953,-52.05078 h 56.836 q -1.1719,-39.16015 -27.2461,-39.16015 -12.8907,0 -21.0938,10.9375 -8.2031,10.83984 -8.4961,28.22265 z"
           style="font-size:400px;font-family:'Franklin Gothic';-inkscape-font-specification:'Franklin Gothic';letter-spacing:-28.125px"
           id="path954" />
      </g>
      <g
         aria-label="Classic. Reborn."
         id="text15915"
         style="font-size:285px;line-height:1.25;letter-spacing:-14.0625px;stroke-width:0.9375">
        <path
           d="m 2964.3967,688.20038 38.4778,8.83667 q -3.9661,14.82055 -11.2024,26.37085 -7.1667,11.48071 -17.2558,19.552 -10.0892,8.07129 -22.7527,12.31567 -12.6636,4.17481 -27.2058,4.17481 -17.6734,0 -37.0166,-8.55835 -19.3433,-8.55835 -33.1897,-29.84985 -13.8465,-21.36109 -13.8465,-56.49903 0,-20.52612 5.3577,-38.89526 5.3577,-18.43872 16.1426,-32.63306 10.8545,-14.19433 27.1362,-22.19604 16.3513,-8.00171 37.7124,-8.00171 21.9177,0 39.3128,9.60205 17.4646,9.60205 27.1362,25.04883 9.6716,15.37719 9.6716,31.72851 l -48.7756,2.57447 q -3.6878,-31.03272 -27.0667,-31.03272 -16.4209,0 -24.2138,15.44678 -7.7234,15.37719 -7.7234,48.07983 0,19.48242 3.5486,31.7981 3.5485,12.24609 10.9936,18.1604 7.4451,5.9143 19.1345,5.9143 11.8286,0 19.2041,-5.63598 7.4451,-5.63599 10.437,-11.68946 3.0616,-6.05346 5.9839,-14.61181 z"
           style="font-family:'Franklin Gothic';-inkscape-font-specification:'Franklin Gothic'"
           id="path957" />
        <path
           d="M 3011.0081,756.04095 V 565.11322 h 44.1833 v 190.92773 z"
           style="font-family:'Franklin Gothic';-inkscape-font-specification:'Franklin Gothic'"
           id="path959" />
        <path
           d="m 3189.8911,661.96869 v 67.00561 q 0,9.11499 0.4871,13.91602 0.487,4.73145 2.9223,13.15063 h -44.1833 q -1.1829,-6.47094 -1.6699,-14.26391 -21.2915,17.1167 -42.7918,17.1167 -17.4646,0 -28.5278,-10.29785 -11.0632,-10.29786 -11.0632,-26.44043 0,-24.35303 21.0131,-37.08619 21.0828,-12.80273 61.3697,-12.80273 v -10.29785 q 0,-7.93213 -4.8706,-12.31567 -4.8706,-4.45313 -13.7073,-4.45313 -8.7671,0 -13.4986,4.03564 -4.7314,4.03565 -6.4013,12.73316 l -37.6428,-9.11499 q 3.2006,-10.85449 11.3415,-18.64746 8.2105,-7.79297 20.7349,-11.75904 12.5244,-4.03564 28.5974,-4.03564 29.6411,0 43.7659,10.22827 14.1247,10.22827 14.1247,33.32886 z m -42.4438,31.38061 h -3.479 q -14.8206,0 -24.6314,6.61011 -9.8108,6.54053 -9.8108,16.49048 0,7.02759 4.5227,11.89819 4.5227,4.87061 11.1328,4.87061 9.6021,0 22.2657,-8.83667 z"
           style="font-family:'Franklin Gothic';-inkscape-font-specification:'Franklin Gothic'"
           id="path961" />
        <path
           d="m 3197.468,728.13934 27.0667,-14.54223 q 10.7849,19.06494 35.3466,19.06494 10.0892,0 15.7251,-3.27027 5.636,-3.27026 5.636,-8.97583 0,-7.16674 -5.7751,-9.11499 -5.7752,-1.94824 -24.1443,-5.42724 -18.3691,-3.47901 -27.9016,-8.83667 -19.6912,-11.06323 -19.6912,-32.21558 0,-13.28979 7.3059,-23.86596 7.3059,-10.64576 20.3174,-16.56006 13.0115,-5.98389 29.0845,-5.98389 39.6606,0 55.5945,29.64111 l -26.2317,13.91602 q -8.7671,-17.04712 -29.0845,-17.04712 -8.28,0 -13.4289,3.06152 -5.0794,3.06153 -5.0794,8.00171 0,5.49683 5.0794,7.86255 5.1489,2.36572 17.5341,4.38355 12.4549,1.94824 21.222,4.31396 8.767,2.29614 16.8383,8.00171 8.5584,5.91431 13.0811,14.3335 4.5923,8.41919 4.5923,18.71704 0,13.28979 -7.4451,23.65722 -7.4451,10.29786 -21.0132,16.00342 -13.5681,5.63599 -31.1023,5.63599 -48.4277,0 -63.5266,-30.7544 z"
           style="font-family:'Franklin Gothic';-inkscape-font-specification:'Franklin Gothic'"
           id="path963" />
        <path
           d="m 3317.9038,728.13934 27.0667,-14.54223 q 10.7849,19.06494 35.3466,19.06494 10.0892,0 15.7251,-3.27027 5.636,-3.27026 5.636,-8.97583 0,-7.16674 -5.7751,-9.11499 -5.7752,-1.94824 -24.1443,-5.42724 -18.3692,-3.47901 -27.9016,-8.83667 -19.6912,-11.06323 -19.6912,-32.21558 0,-13.28979 7.3059,-23.86596 7.3059,-10.64576 20.3174,-16.56006 13.0115,-5.98389 29.0845,-5.98389 39.6606,0 55.5945,29.64111 l -26.2317,13.91602 q -8.7671,-17.04712 -29.0845,-17.04712 -8.28,0 -13.429,3.06152 -5.0793,3.06153 -5.0793,8.00171 0,5.49683 5.0793,7.86255 5.149,2.36572 17.5342,4.38355 12.4549,1.94824 21.2219,4.31396 8.7671,2.29614 16.8384,8.00171 8.5584,5.91431 13.0811,14.3335 4.5923,8.41919 4.5923,18.71704 0,13.28979 -7.4451,23.65722 -7.4451,10.29786 -21.0132,16.00342 -13.5681,5.63599 -31.1023,5.63599 -48.4277,0 -63.5266,-30.7544 z"
           style="font-family:'Franklin Gothic';-inkscape-font-specification:'Franklin Gothic'"
           id="path965" />
        <path
           d="M 3447.7329,756.04095 V 621.26434 h 44.1834 v 134.77661 z m 0,-151.05835 v -39.86938 h 44.1834 v 39.86938 z"
           style="font-family:'Franklin Gothic';-inkscape-font-specification:'Franklin Gothic'"
           id="path967" />
        <path
           d="m 3595.2354,708.16986 29.6411,5.70557 q -7.793,23.031 -22.0569,34.02466 -14.1944,10.99365 -36.0425,10.99365 -19.2737,0 -34.4421,-8.55835 -15.0989,-8.55835 -23.4485,-24.14429 -8.2801,-15.58594 -8.2801,-35.41626 0,-20.73486 8.5584,-37.29492 8.6279,-16.56006 23.9355,-25.81421 15.3077,-9.25415 34.5118,-9.25415 15.0988,0 27.1362,5.63599 12.0373,5.63598 19.6912,16.35131 7.7233,10.64576 10.437,25.32715 l -40.1477,1.66993 q -0.4175,-19.96949 -16.2818,-19.96949 -21.3611,0 -21.3611,41.60889 0,41.05225 24.4922,41.05225 17.6734,0 23.6573,-21.91773 z"
           style="font-family:'Franklin Gothic';-inkscape-font-specification:'Franklin Gothic'"
           id="path969" />
        <path
           d="m 3627.9307,756.04095 v -47.59277 h 49.2627 v 47.59277 z"
           style="font-family:'Franklin Gothic';-inkscape-font-specification:'Franklin Gothic'"
           id="path971" />
        <path
           d="M 3763.1101,756.04095 V 565.94818 h 83.2178 q 26.3708,0 43.6267,5.42725 15.1684,4.66186 24.6313,18.29956 9.5325,13.56811 9.5325,30.40649 0,20.45654 -13.081,33.95508 -7.2364,7.65381 -21.9874,14.19434 l 34.5118,87.81005 h -58.4473 l -26.1621,-78.62548 h -23.9356 v 78.62548 z m 51.9067,-153.91113 v 39.66065 h 30.7544 q 11.1329,0 17.3951,-5.28809 6.2622,-5.28809 6.2622,-14.6814 0,-9.39331 -6.1927,-14.54223 -6.123,-5.14893 -17.4646,-5.14893 z"
           style="font-family:'Franklin Gothic';-inkscape-font-specification:'Franklin Gothic'"
           id="path973" />
        <path
           d="m 4026.6025,710.74432 28.5279,13.6377 q -19.3433,34.51172 -59.5606,34.51172 -20.1086,0 -35.9729,-8.55835 -15.8642,-8.62793 -24.7705,-24.14429 -8.8367,-15.58594 -8.8367,-35.13794 0,-19.69116 8.9759,-36.45996 9.0454,-16.83838 24.5617,-26.51001 15.5164,-9.67163 33.7464,-9.67163 18.2995,0 32.9114,9.32373 14.6814,9.32373 22.9614,25.88379 8.28,16.49048 8.28,36.87744 v 6.54053 h -84.6789 q 1.3916,31.65893 27.6928,31.65893 17.395,0 26.1621,-17.95166 z m -53.5766,-37.08618 h 40.4956 q -0.835,-27.90161 -19.4129,-27.90161 -9.1845,0 -15.0293,7.79297 -5.8447,7.72339 -6.0534,20.10864 z"
           style="font-family:'Franklin Gothic';-inkscape-font-specification:'Franklin Gothic'"
           id="path975" />
        <path
           d="M 4066.1167,756.04095 V 565.11322 H 4110.3 v 72.08496 q 18.9954,-19.06494 38.1995,-19.06494 11.0632,0 19.9695,4.94019 8.9758,4.8706 15.3076,14.12475 6.4014,9.18457 9.7412,22.05689 3.4094,12.87231 3.4094,28.66699 0,21.6394 -6.5405,37.7124 -6.5405,16.00342 -18.8562,24.63135 -12.2461,8.62793 -28.7366,8.62793 -25.4663,0 -40.2172,-23.65723 l -7.6538,20.52612 z M 4110.3,658.28094 v 46.4795 q 0,13.77685 4.8707,21.2915 4.9401,7.44507 13.916,7.44507 10.8545,0 15.9338,-10.85449 5.1489,-10.8545 5.1489,-33.8855 0,-42.44385 -19.8999,-42.44385 -10.5761,0 -19.9695,11.96777 z"
           style="font-family:'Franklin Gothic';-inkscape-font-specification:'Franklin Gothic'"
           id="path977" />
        <path
           d="m 4264.1343,618.41156 q 19.552,0 34.6509,8.83667 15.0988,8.76709 23.3789,24.70093 8.3496,15.93384 8.3496,36.52954 0,15.51636 -4.8011,28.52783 -4.7314,13.01148 -13.5681,22.40479 -8.7671,9.32373 -21.0827,14.40307 -12.3157,5.07935 -26.9275,5.07935 -19.4129,0 -34.5117,-8.83667 -15.0293,-8.83667 -23.3789,-24.90967 -8.2801,-16.073 -8.2801,-36.6687 0,-20.38696 8.2801,-36.39038 8.3496,-16.073 23.4484,-24.84009 15.0989,-8.83667 34.4422,-8.83667 z m 0.2783,28.73657 q -19.9695,0 -19.9695,42.79175 0,39.86939 20.2478,39.86939 19.065,0 19.065,-42.44385 0,-40.21729 -19.3433,-40.21729 z"
           style="font-family:'Franklin Gothic';-inkscape-font-specification:'Franklin Gothic'"
           id="path979" />
        <path
           d="M 4339.5518,756.04095 V 621.26434 h 44.1833 v 27.62329 q 19.8999,-29.08447 50.1672,-29.08447 v 43.90503 q -12.2461,-4.59228 -21.6394,-4.59228 -20.8044,0 -28.5278,15.44677 v 81.47827 z"
           style="font-family:'Franklin Gothic';-inkscape-font-specification:'Franklin Gothic'"
           id="path981" />
        <path
           d="M 4438.6265,756.04095 V 621.26434 h 44.1833 v 21.91773 q 21.0132,-24.77051 43.905,-24.77051 9.2542,0 17.1167,3.8269 7.8626,3.82691 12.5245,10.71534 3.5485,4.94018 4.7314,10.50659 1.2524,5.5664 1.2524,16.83838 v 95.74218 h -44.1833 V 674.841 q 0,-11.68945 -1.4612,-16.56006 -3.0615,-8.55834 -11.6894,-8.55834 -12.8028,0 -22.1961,14.54223 v 91.77612 z"
           style="font-family:'Franklin Gothic';-inkscape-font-specification:'Franklin Gothic'"
           id="path983" />
        <path
           d="m 4575.0657,756.04095 v -47.59277 h 49.2627 v 47.59277 z"
           style="font-family:'Franklin Gothic';-inkscape-font-specification:'Franklin Gothic'"
           id="path985" />
      </g>
      <g
         aria-label="Leet's"
         id="text30724"
         style="font-size:200px;line-height:1.25;stroke-width:0.9375">
        <path
           d="m 1377.6486,147.55321 v 14.64843 h -78.711 V 28.900864 h 17.0899 V 147.55321 Z"
           style="font-family:'Franklin Gothic Book';-inkscape-font-specification:'Franklin Gothic Book, '"
           id="path988" />
        <path
           d="m 1460.6564,132.80711 14.2578,2.92969 q -3.9063,12.59766 -15.2344,20.89844 -11.3281,8.20312 -26.6601,8.20312 -20.2149,0 -32.7149,-14.16015 -12.5,-14.25782 -12.5,-37.30469 0,-23.535156 12.9883,-37.988281 12.9883,-14.550782 32.6172,-14.550782 19.3359,0 31.0547,13.378907 11.8164,13.378906 12.1093,40.039066 h -71.6796 q 0,22.36328 9.375,30.17578 9.375,7.8125 19.8242,7.8125 18.8476,0 26.5625,-19.4336 z m -0.8789,-29.98047 q -0.1953,-8.300776 -2.7344,-14.746089 -2.5391,-6.445312 -8.5938,-10.9375 -6.0546,-4.589844 -14.5507,-4.589844 -11.4258,0 -19.4336,8.203125 -7.9102,8.203125 -8.8868,22.070308 z"
           style="font-family:'Franklin Gothic Book';-inkscape-font-specification:'Franklin Gothic Book, '"
           id="path990" />
        <path
           d="m 1564.7579,132.80711 14.2578,2.92969 q -3.9062,12.59766 -15.2343,20.89844 -11.3282,8.20312 -26.6602,8.20312 -20.2148,0 -32.7148,-14.16015 -12.5,-14.25782 -12.5,-37.30469 0,-23.535156 12.9883,-37.988281 12.9882,-14.550782 32.6171,-14.550782 19.336,0 31.0547,13.378907 11.8164,13.378906 12.1094,40.039066 h -71.6797 q 0,22.36328 9.375,30.17578 9.375,7.8125 19.8242,7.8125 18.8477,0 26.5625,-19.4336 z m -0.8789,-29.98047 q -0.1953,-8.300776 -2.7343,-14.746089 -2.5391,-6.445312 -8.5938,-10.9375 -6.0547,-4.589844 -14.5508,-4.589844 -11.4258,0 -19.4336,8.203125 -7.9101,8.203125 -8.8867,22.070308 z"
           style="font-family:'Franklin Gothic Book';-inkscape-font-specification:'Franklin Gothic Book, '"
           id="path992" />
        <path
           d="m 1647.4728,151.65477 v 12.10937 q -8.1055,1.07422 -14.0625,1.07422 -28.6133,0 -28.6133,-29.88281 V 75.580551 h -17.4805 V 63.568832 h 17.4805 l 0.6836,-24.804687 14.2578,-1.367188 v 26.171875 h 22.0703 v 12.011719 h -22.0703 v 61.914059 q 0,15.23438 15.8203,15.23438 5.2735,0 11.9141,-1.07422 z"
           style="font-family:'Franklin Gothic Book';-inkscape-font-specification:'Franklin Gothic Book, '"
           id="path994" />
        <path
           d="m 1671.9845,80.463364 h -9.7656 l -2.9297,-51.5625 h 15.625 z"
           style="font-family:'Franklin Gothic Book';-inkscape-font-specification:'Franklin Gothic Book, '"
           id="path996" />
        <path
           d="m 1687.2189,136.61571 14.6484,-3.02735 q 4.8828,18.65235 30.8594,18.65235 9.5703,0 16.2109,-4.29688 6.6406,-4.29687 6.6406,-12.10937 0,-11.6211 -16.8945,-14.7461 l -20.8008,-3.90625 q -12.207,-2.34375 -19.4336,-9.17968 -7.2265,-6.83594 -7.2265,-18.06641 0,-12.402344 9.8633,-20.703125 9.8632,-8.398438 26.5625,-8.398438 32.1289,0 39.6484,25.097657 l -14.0625,3.027343 q -6.0547,-15.429687 -24.9023,-15.429687 -9.375,0 -15.4297,3.90625 -5.9571,3.808594 -5.9571,10.742187 0,10.9375 15.3321,13.769533 l 19.2382,3.41797 q 30.1758,5.46875 30.1758,29.19922 0,13.57421 -11.2304,21.97265 -11.2305,8.30078 -29.8829,8.30078 -35.0585,0 -43.3593,-28.22265 z"
           style="font-family:'Franklin Gothic Book';-inkscape-font-specification:'Franklin Gothic Book, '"
           id="path998" />
      </g>
    </g>
  </g>
</svg>
